<?xml version="1.0" standalone="no"?>
<!DOCTYPE svg PUBLIC "-//W3C//DTD SVG 20010904//EN"
 "http://www.w3.org/TR/2001/REC-SVG-20010904/DTD/svg10.dtd">
<svg version="1.0" xmlns="http://www.w3.org/2000/svg"
 width="2347.000000pt" height="2347.000000pt" viewBox="0 0 2347.000000 2347.000000"
 preserveAspectRatio="xMidYMid meet">
<metadata>
Created by potrace 1.11, written by Peter Selinger 2001-2013
</metadata>
<g transform="translate(0.000000,2347.000000) scale(0.100000,-0.100000)"
fill="#000000" stroke="none">
<path d="M7754 23434 c-229 -48 -425 -212 -505 -423 -47 -126 -58 -274 -30
-401 23 -101 16 -87 406 -790 109 -195 208 -375 222 -400 13 -25 28 -52 33
-60 5 -8 41 -73 80 -143 l71 -128 -23 -19 c-13 -11 -26 -19 -30 -20 -19 -1
-412 -274 -524 -364 -28 -23 -65 -52 -84 -66 -172 -131 -583 -517 -755 -711
-28 -31 -64 -71 -80 -90 -26 -28 -146 -173 -201 -242 -73 -90 -271 -366 -319
-443 -98 -159 -193 -315 -208 -344 -11 -19 -34 -62 -52 -95 -291 -529 -518
-1184 -621 -1794 -3 -18 -8 -43 -10 -55 -2 -11 -7 -41 -10 -66 -3 -25 -7 -52
-9 -60 -2 -8 -7 -42 -11 -75 -3 -33 -8 -73 -10 -90 -2 -16 -6 -64 -10 -105 -3
-41 -8 -91 -10 -110 -3 -19 -7 -206 -10 -415 -3 -209 -6 -383 -7 -387 -1 -4
-45 35 -97 86 -114 111 -257 221 -365 282 -11 6 -38 21 -60 34 -157 89 -445
183 -630 205 -32 4 -68 9 -80 11 -31 7 -292 6 -365 -1 -103 -10 -303 -53 -403
-87 -298 -101 -518 -238 -737 -458 -117 -118 -127 -129 -170 -190 -13 -19 -27
-37 -30 -40 -48 -44 -185 -302 -239 -452 -35 -95 -79 -259 -86 -323 -3 -22 -7
-51 -10 -65 -16 -76 -18 -459 -18 -3155 0 -2682 2 -3054 18 -3150 5 -28 8 -42
19 -100 39 -195 106 -372 208 -555 171 -305 449 -574 768 -743 123 -65 362
-150 490 -173 105 -19 139 -24 217 -30 108 -9 202 -9 313 0 115 10 132 12 227
30 126 25 371 112 480 171 194 105 350 222 486 363 l67 70 2 -466 c1 -505 1
-489 12 -577 75 -605 413 -1131 939 -1458 135 -84 409 -202 510 -221 12 -2 42
-9 67 -16 53 -14 57 -15 195 -36 74 -11 238 -17 483 -18 l282 0 1 -1336 c1
-734 3 -1355 5 -1380 28 -363 162 -712 385 -1000 438 -567 1153 -835 1854
-694 235 46 425 122 625 247 221 138 414 325 566 547 61 89 184 324 184 350 0
9 4 20 9 25 23 25 94 295 106 405 3 30 8 73 12 95 3 22 7 648 7 1390 l1 1350
425 1 c234 0 430 -1 435 -3 8 -2 11 -421 11 -1336 0 -732 3 -1363 7 -1402 15
-160 54 -331 107 -474 28 -78 113 -259 143 -306 99 -157 163 -241 267 -348
114 -120 276 -248 410 -326 39 -23 218 -111 226 -111 3 0 20 -7 37 -14 43 -20
177 -61 257 -80 214 -49 452 -60 680 -31 169 21 384 87 558 170 482 231 845
665 991 1180 38 135 54 228 66 380 2 28 4 646 5 1375 l1 1325 277 1 c259 1
427 7 497 19 17 3 46 8 65 11 19 3 49 8 65 11 50 7 259 71 342 104 281 110
573 322 768 554 28 33 52 62 55 65 26 24 143 208 195 305 75 142 154 359 181
500 2 11 6 33 10 48 9 44 23 150 29 237 2 19 3 238 4 487 l1 451 63 -65 c121
-128 301 -265 462 -352 155 -85 392 -168 560 -196 17 -3 39 -7 51 -9 38 -8
199 -19 269 -19 365 0 708 99 1015 292 174 109 393 313 503 466 213 298 335
624 363 970 9 101 8 6007 0 6090 -16 158 -40 278 -86 420 -111 345 -320 648
-608 883 -144 118 -306 212 -492 286 -52 21 -102 39 -110 41 -8 2 -49 13 -90
24 -84 24 -214 48 -305 56 -68 7 -302 7 -355 1 -19 -3 -57 -7 -84 -10 -115
-14 -308 -65 -433 -115 -65 -26 -226 -103 -233 -112 -3 -3 -23 -16 -46 -27
-74 -37 -247 -173 -346 -271 l-98 -97 -1 291 c-1 159 -2 317 -4 350 -3 77 -15
240 -20 285 -3 19 -7 64 -10 100 -5 59 -22 187 -31 234 -2 11 -6 42 -9 69 -3
28 -8 53 -10 56 -2 4 -6 27 -10 51 -17 119 -75 366 -125 540 -17 58 -32 112
-34 121 -13 51 -108 318 -168 469 -80 204 -273 598 -383 785 -135 229 -387
596 -513 747 -234 281 -526 588 -738 776 -218 193 -633 510 -782 597 -21 13
-136 86 -141 91 -2 2 8 22 22 46 30 51 43 76 182 328 59 107 111 200 115 205
4 6 31 55 60 110 29 55 56 105 60 110 7 10 23 37 98 175 20 36 48 87 64 113
15 26 28 50 28 52 0 2 26 50 58 107 116 205 135 265 136 423 0 103 -4 132 -27
205 -36 116 -88 201 -178 291 -133 133 -312 202 -504 195 -218 -9 -413 -115
-536 -293 -24 -35 -369 -649 -509 -908 -24 -44 -54 -97 -67 -117 -12 -21 -23
-39 -23 -41 0 -2 -41 -78 -91 -168 -51 -90 -99 -177 -107 -194 -8 -16 -16 -31
-17 -33 -1 -1 -42 11 -91 28 -269 93 -604 189 -776 224 -16 3 -38 8 -50 11
-13 3 -32 7 -43 9 -11 2 -40 9 -65 15 -51 11 -267 50 -320 57 -19 2 -46 6 -60
9 -14 2 -45 7 -70 10 -25 3 -56 8 -70 10 -14 2 -52 7 -85 10 -33 3 -73 8 -90
10 -34 5 -155 14 -259 21 -39 3 -100 7 -136 9 -80 6 -600 6 -690 0 -36 -2
-108 -7 -160 -10 -104 -6 -186 -13 -240 -20 -19 -3 -60 -7 -90 -10 -30 -4 -66
-8 -80 -10 -14 -2 -50 -7 -80 -10 -30 -4 -64 -9 -75 -11 -11 -2 -40 -7 -65
-10 -288 -38 -840 -175 -1180 -293 -164 -57 -150 -59 -196 27 -10 21 -40 74
-66 120 -27 46 -48 85 -48 87 0 2 -16 32 -36 67 -20 34 -52 92 -72 128 -19 36
-44 81 -55 100 -11 19 -33 60 -50 90 -34 62 -143 260 -169 305 -9 17 -55 100
-102 185 -134 241 -145 260 -179 309 -70 102 -204 206 -317 246 -120 43 -259
53 -376 29z"/>
</g>
</svg>
