<?xml version="1.0" standalone="no"?>
<!DOCTYPE svg PUBLIC "-//W3C//DTD SVG 20010904//EN"
 "http://www.w3.org/TR/2001/REC-SVG-20010904/DTD/svg10.dtd">
<svg version="1.0" xmlns="http://www.w3.org/2000/svg"
 width="416.000000pt" height="416.000000pt" viewBox="0 0 416.000000 416.000000"
 preserveAspectRatio="xMidYMid meet">
<metadata>
Created by potrace 1.11, written by Peter Selinger 2001-2013
</metadata>
<g transform="translate(0.000000,416.000000) scale(0.100000,-0.100000)"
fill="#000000" stroke="none">
<path d="M1335 4140 c-6 -20 7 -49 135 -283 23 -43 40 -80 39 -81 -2 -2 -23
-13 -45 -24 -92 -47 -255 -186 -324 -278 -106 -141 -185 -318 -204 -459 -13
-99 -16 -155 -9 -156 20 -3 2289 -5 2299 -2 17 6 6 128 -23 243 -63 254 -260
509 -498 645 -27 16 -51 30 -53 31 -2 1 38 79 88 173 53 98 90 177 86 186 -8
22 -34 29 -51 15 -13 -11 -67 -107 -154 -273 -26 -49 -40 -66 -51 -61 -47 19
-152 54 -176 58 -16 3 -45 10 -64 16 -74 21 -256 29 -390 16 -82 -7 -286 -58
-332 -82 -17 -9 -31 -14 -33 -12 -1 2 -23 41 -47 88 -84 158 -121 225 -136
243 -20 23 -49 22 -57 -3z m287 -707 c77 -73 -17 -197 -113 -148 -48 26 -65
100 -31 141 41 51 96 54 144 7z m1021 25 c97 -51 60 -195 -48 -183 -36 3 -85
56 -85 90 0 39 22 77 55 91 38 17 51 17 78 2z"/>
<path d="M466 2788 c-58 -30 -112 -90 -130 -145 -15 -45 -16 -114 -14 -644 l3
-594 27 -46 c51 -87 125 -131 218 -130 103 0 155 25 212 101 51 69 51 72 50
696 0 573 0 582 -22 631 -42 99 -133 156 -244 152 -39 -1 -77 -9 -100 -21z"/>
<path d="M3483 2792 c-54 -22 -107 -73 -134 -131 -21 -45 -21 -54 -22 -627 0
-647 0 -645 64 -718 54 -61 114 -88 193 -89 98 0 171 43 224 133 l27 45 2 606
3 605 -26 52 c-60 121 -205 175 -331 124z"/>
<path d="M935 2745 c-2 -11 -3 -402 -2 -870 l2 -850 24 -45 c31 -58 83 -108
140 -133 38 -17 67 -21 169 -21 l122 0 1 -36 c0 -19 2 -159 4 -310 1 -156 7
-289 13 -308 16 -48 68 -109 120 -139 39 -23 58 -28 122 -28 85 0 132 20 188
77 65 68 70 101 71 409 0 150 0 288 0 304 l1 31 170 0 170 0 0 -26 c0 -14 1
-151 1 -304 0 -250 2 -284 20 -330 38 -104 137 -167 249 -162 100 5 176 54
223 141 21 38 22 55 24 335 1 162 2 306 3 320 l0 26 108 0 c136 1 164 6 215
40 55 35 85 69 111 124 21 45 21 51 23 910 l1 865 -1144 0 c-1140 0 -1145 0
-1149 -20z"/>
</g>
</svg>
